<svg width="72" height="36" viewBox="0 0 72 36" fill="none" xmlns="http://www.w3.org/2000/svg">
<path d="M33.4861 18.8199C33.487 19.5396 33.2611 20.2422 32.8389 20.8324C32.4167 21.4226 31.8187 21.872 31.1259 22.1195L24.2028 24.5775C23.109 24.9705 21.939 25.12 20.7783 25.0151C19.6177 24.9102 18.4958 24.5536 17.4946 23.9713C15.4172 22.7497 13.4712 21.3272 11.686 19.7254H29.9013C30.1906 19.7254 30.4681 19.6133 30.6726 19.4138C30.8772 19.2142 30.9922 18.9436 30.9922 18.6614V18.6614C30.9917 18.4191 30.9069 18.184 30.7516 17.9949C30.5963 17.8058 30.3796 17.6737 30.1373 17.6204L8.89573 13.0293C7.72747 12.7804 6.63314 12.2738 5.69672 11.5484C4.7603 10.8231 4.00666 9.89818 3.49357 8.84468C2.13673 6.0359 1.17352 3.06188 0.629883 0.00256348L31.5744 15.7047C32.1536 16.005 32.6378 16.4539 32.9747 17.0029C33.3115 17.5519 33.4884 18.1801 33.4861 18.8199V18.8199Z" fill="#FCFE4C"/>
<path d="M35.9901 11.8305C38.7547 11.8305 40.9958 9.64465 40.9958 6.94823C40.9958 4.2518 38.7547 2.06592 35.9901 2.06592C33.2255 2.06592 30.9844 4.2518 30.9844 6.94823C30.9844 9.64465 33.2255 11.8305 35.9901 11.8305Z" fill="#FCFE4C"/>
<path d="M35.9901 35.6689C38.7547 35.6689 40.9958 33.483 40.9958 30.7866C40.9958 28.0902 38.7547 25.9043 35.9901 25.9043C33.2255 25.9043 30.9844 28.0902 30.9844 30.7866C30.9844 33.483 33.2255 35.6689 35.9901 35.6689Z" fill="#FCFE4C"/>
<path d="M40.9978 18.6612C40.9985 18.9437 41.114 19.2142 41.319 19.4137C41.524 19.6132 41.8018 19.7252 42.0914 19.7252H60.3014C58.5183 21.3284 56.573 22.751 54.4954 23.9711C53.4942 24.5534 52.3723 24.91 51.2117 25.0149C50.051 25.1198 48.881 24.9703 47.7873 24.5773L40.8641 22.1193C40.1715 21.8714 39.5737 21.422 39.1515 20.8318C38.7294 20.2417 38.5033 19.5393 38.5039 18.8197V18.8197C38.5035 18.1772 38.6841 17.5469 39.0258 16.9976C39.3675 16.4482 39.8574 16.0009 40.4419 15.7045L71.3706 -0.00012207C70.8266 3.05962 69.8644 6.03427 68.5095 8.84449C67.9959 9.89806 67.2417 10.823 66.3049 11.5484C65.368 12.2737 64.2733 12.7802 63.1048 13.0291L41.8632 17.6202C41.6189 17.6715 41.3999 17.8028 41.2425 17.9921C41.0851 18.1814 40.9988 18.4175 40.9978 18.6612V18.6612Z" fill="#FCFE4C"/>
<path d="M66.5208 35.6691C65.5616 35.6691 64.7164 35.4654 63.985 35.0581C63.259 34.6454 62.692 34.0741 62.284 33.3441C61.8759 32.6088 61.6719 31.7598 61.6719 30.797C61.6719 29.8342 61.8759 28.9852 62.284 28.2499C62.692 27.5146 63.259 26.9406 63.985 26.528C64.7164 26.1154 65.5616 25.9091 66.5208 25.9091C67.48 25.9091 68.3226 26.1154 69.0486 26.528C69.7799 26.9406 70.3496 27.5146 70.7576 28.2499C71.1657 28.9852 71.3697 29.8342 71.3697 30.797C71.3697 31.7598 71.1657 32.6088 70.7576 33.3441C70.3496 34.0741 69.7799 34.6454 69.0486 35.0581C68.3226 35.4654 67.48 35.6691 66.5208 35.6691ZM67.7926 33.0347L66.5764 31.2572L67.2601 31.0509L68.6114 33.0347H67.7926ZM66.5208 34.9628C67.3528 34.9628 68.0762 34.7909 68.6909 34.4471C69.3056 34.1032 69.7825 33.6192 70.1217 32.995C70.4609 32.3708 70.6304 31.6381 70.6304 30.797C70.6304 29.9559 70.4609 29.2232 70.1217 28.599C69.7825 27.9695 69.3056 27.4828 68.6909 27.139C68.0762 26.7898 67.3528 26.6153 66.5208 26.6153C65.6941 26.6153 64.9734 26.7898 64.3587 27.139C63.7439 27.4828 63.267 27.9695 62.9278 28.599C62.5887 29.2232 62.4191 29.9559 62.4191 30.797C62.4191 31.6381 62.5887 32.3708 62.9278 32.995C63.267 33.6192 63.7439 34.1032 64.3587 34.4471C64.9734 34.7909 65.6941 34.9628 66.5208 34.9628ZM64.8435 33.0347V28.3372H66.4254C67.0825 28.3372 67.5754 28.4668 67.9039 28.726C68.2378 28.9852 68.4047 29.3555 68.4047 29.8369C68.4047 30.3182 68.2404 30.6859 67.9119 30.9398C67.5833 31.1937 67.0878 31.3207 66.4254 31.3207H65.5828L65.5749 33.0347H64.8435ZM65.5828 30.6859H66.5526C67.3051 30.6859 67.6814 30.4029 67.6814 29.8369C67.6814 29.2603 67.3051 28.972 66.5526 28.972H65.5828V30.6859Z" fill="#D8D8D8"/>
</svg>
